<svg xmlns="http://www.w3.org/2000/svg" width="1024" height="1024" viewBox="0 0 1024 1024">
    <rect width="1024" height="1024" fill="#0A0F16"/>
    <path fill="#FFFFFF" d="M410.000061,378.739319 C422.831329,378.744598 435.163025,378.685852 447.493713,378.771759 C464.950256,378.893372 477.877228,390.927979 478.042603,408.425842 C478.406464,446.915863 478.373383,485.412933 478.093964,523.904175 C477.978333,539.831909 465.567657,551.733093 449.667725,552.374390 C414.687195,553.785339 379.694824,552.751953 344.708282,552.796448 C341.603516,552.800415 339.339417,553.527832 337.155975,555.656616 C326.658875,565.890869 316.068878,576.029907 305.498413,586.188782 C304.300079,587.340454 303.062775,588.461243 301.764221,589.496948 C299.037933,591.671326 295.915039,591.993469 292.828217,590.655029 C289.691864,589.295166 288.797058,586.359497 288.787476,583.199097 C288.762207,574.867676 288.687408,566.532043 288.917694,558.205994 C289.026184,554.284363 287.525482,552.826599 283.679657,552.917053 C278.024597,553.049988 272.375519,552.959595 266.711426,552.442383 C251.906433,551.090759 240.730026,539.459778 240.700043,524.589783 C240.620377,485.096710 240.627975,445.603180 240.731171,406.110168 C240.770752,390.961487 253.840622,378.795166 270.023346,378.768188 C311.849579,378.698517 353.675995,378.744965 395.502350,378.744598 C400.168243,378.744537 404.834137,378.741516 410.000061,378.739319 M399.326080,459.773895 C398.650665,460.713776 397.808929,461.576172 397.328827,462.607025 C395.312500,466.936005 395.538757,471.252197 398.941315,474.645050 C402.311951,478.006073 406.586731,478.451996 410.969788,476.399689 C415.476135,474.289673 416.397949,470.404755 415.951263,465.947388 C415.199799,458.448517 408.086517,455.519073 399.326080,459.773895 M350.693573,461.388855 C348.407806,465.536957 348.244232,469.693726 351.149475,473.555511 C353.533173,476.724121 356.958588,478.042053 360.851990,477.340118 C365.409210,476.518463 368.234100,473.756256 368.877136,469.022705 C369.500275,464.435364 368.112335,460.707764 363.847656,458.593201 C359.185974,456.281830 354.833344,456.835175 350.693573,461.388855 M321.787354,465.923187 C319.968140,460.037750 315.867340,456.897644 310.658600,457.401520 C305.773041,457.874146 302.408173,461.306824 302.068207,466.165039 C301.627319,472.465302 305.704315,477.060059 312.031219,477.393311 C317.661957,477.689911 321.403931,473.626495 321.787354,465.923187 z"/>
    <path fill="#FFFFFF" d="M600.000000,726.292236 C548.671509,726.294861 497.842957,726.321472 447.014496,726.288086 C423.204163,726.272461 408.716583,711.758728 408.694977,687.953552 C408.660004,649.457214 408.667694,610.960938 408.672638,572.464600 C408.673492,565.788940 408.708771,565.733887 415.251862,565.781311 C428.966583,565.880676 427.221313,564.000244 427.248383,577.635681 C427.320892,614.132080 427.286469,650.628723 427.337189,687.125183 C427.339874,689.059204 426.799103,691.109863 428.627777,693.966919 C468.836151,659.969421 508.070587,625.203491 548.133362,590.335144 C539.381226,583.346313 531.265686,576.774841 523.051514,570.329102 C512.303650,561.895325 501.547760,553.468140 490.640656,545.243164 C487.584045,542.938232 486.953217,540.822937 488.385803,537.221863 C490.083862,532.953491 490.946655,528.352905 492.135010,524.028809 C494.178589,523.596436 495.211670,524.823059 496.353058,525.736511 C525.231873,548.848206 554.125061,571.941772 582.958008,595.110535 C589.148132,600.084656 595.246704,604.600037 603.956421,603.962158 C610.099548,603.512146 615.275513,601.390381 619.912415,597.655884 C641.452148,580.308105 662.960815,562.921570 684.462524,545.526672 C696.896973,535.467224 709.241516,525.295715 721.749634,515.329163 C725.130005,512.635620 726.536194,509.870605 726.477295,505.242462 C726.193542,482.935608 726.419617,460.620544 726.631653,438.309967 C726.726624,428.317047 725.668152,418.357239 726.300659,408.338593 C726.735779,401.447662 721.912048,396.736877 714.948975,396.345520 C712.622742,396.214783 710.283936,396.298859 707.950867,396.298828 C637.457520,396.297150 566.964172,396.254608 496.471100,396.391602 C491.696198,396.400879 488.681885,395.588379 487.337128,390.425232 C486.178040,385.974945 482.458160,382.688934 479.556793,377.692657 C484.154938,377.692657 487.885437,377.695831 491.615936,377.691986 C499.115173,377.684296 506.615417,377.599457 514.113098,377.702362 C516.753113,377.738617 518.877686,377.095032 520.925964,375.325562 C538.071716,360.513794 555.640686,346.171539 572.390869,330.928223 C588.824585,315.972870 615.589539,315.972412 631.924927,330.096588 C649.191345,345.025726 666.775696,359.586853 684.125916,374.420166 C686.418030,376.379791 688.680908,377.474701 691.710205,377.456451 C699.373047,377.410309 707.037537,377.527313 714.700500,377.639618 C731.966858,377.892700 744.524231,390.161987 745.167542,407.443390 C745.316345,411.438232 745.497253,415.462372 745.185242,419.435486 C744.859680,423.581757 746.621338,426.188965 749.698975,428.728210 C760.364258,437.527679 770.834534,446.563965 781.358337,455.534332 C792.464722,465.001221 797.460999,476.997162 797.397156,491.634674 C797.223572,531.456848 797.129333,571.284607 797.620422,611.102600 C797.918396,635.264038 797.722839,659.422668 798.003662,683.580872 C798.058044,688.260986 797.763672,692.922485 796.678955,697.475769 C792.467346,715.155396 778.422607,726.143372 759.484924,726.201416 C718.655823,726.326477 677.826172,726.265564 636.996704,726.280457 C624.831116,726.284851 612.665588,726.287964 600.000000,726.292236 M501.476746,655.989807 C482.115326,672.689453 462.753906,689.389160 443.392517,706.088867 C443.571472,706.435242 443.750427,706.781677 443.929382,707.128052 C549.858276,707.128052 655.787170,707.128052 761.937683,707.128052 C761.627380,704.824707 760.240417,704.029236 759.170837,703.075439 C751.339661,696.091736 743.499756,689.117249 735.609558,682.200378 C706.300964,656.507629 676.944946,630.869019 647.697876,605.106506 C645.117126,602.833313 643.391174,602.326172 640.606934,604.816528 C636.521240,608.470886 632.116089,611.805664 627.628174,614.965759 C612.160095,625.857361 594.097656,625.934631 578.621033,615.127502 C574.260681,612.082703 570.097595,608.704712 566.142151,605.148010 C563.433838,602.712708 561.693909,603.037354 559.051880,605.383240 C540.121948,622.191895 521.037170,638.826172 501.476746,655.989807 M778.899658,615.500000 C778.899658,575.151306 778.899658,534.802673 778.899658,493.135040 C738.092407,526.128357 698.559570,558.091370 658.572021,590.421936 C698.777039,625.456543 738.226868,659.833069 778.899292,695.274902 C778.899292,668.006897 778.899292,642.253479 778.899658,615.500000 M570.073059,357.592651 C562.864136,363.785797 555.403198,369.706573 548.203674,376.927063 C584.993347,376.927063 620.819946,376.927063 657.625183,376.927063 C656.303833,375.391541 655.854187,374.703461 655.252808,374.194611 C643.316772,364.093994 631.521790,353.818054 619.364990,343.989807 C608.937439,335.559662 595.262146,336.090057 584.980408,344.759796 C580.149353,348.833435 575.395508,352.998627 570.073059,357.592651 M745.207336,476.498566 C745.207336,482.551666 745.207336,488.604767 745.207336,494.800476 C748.028870,494.417328 749.297363,493.021881 750.694885,491.908173 C757.065613,486.831146 763.289490,481.562256 769.788269,476.656616 C773.172546,474.101990 772.956970,472.239288 769.875671,469.736877 C762.648926,463.867767 755.550903,457.840271 748.384949,451.896027 C747.640503,451.278503 746.856934,450.528381 745.205444,451.493774 C745.205444,459.291656 745.205444,467.395355 745.207336,476.498566 z"/>
    <path fill="#FFFFFF" d="M653.516602,441.553436 C667.508179,461.969360 669.531189,483.292725 658.961548,505.206604 C652.372803,518.867004 640.515991,525.869995 625.462952,527.111023 C617.656006,527.754639 610.898193,525.607727 607.076721,518.172302 C604.973145,517.875488 604.276428,519.505859 603.203857,520.406433 C587.201294,533.842285 566.077148,526.996338 562.080994,506.552582 C558.187988,486.636230 564.781982,469.961670 580.691406,457.470856 C591.802185,448.747589 602.789368,448.960876 615.247375,456.951050 C618.261047,453.420288 627.865845,451.454803 632.275757,453.482605 C635.502563,454.966339 634.360840,457.774597 633.921265,460.030609 C632.011353,469.832550 629.888000,479.593231 627.807800,489.361572 C626.768372,494.242737 625.534790,499.085968 624.627258,503.990387 C624.189636,506.355377 623.164429,509.227142 625.566833,510.988251 C628.068726,512.822266 630.744873,511.333160 633.063049,510.058228 C642.346497,504.952698 647.004822,496.716827 649.208313,486.595947 C653.184875,468.331146 645.350159,448.705902 629.434265,440.152405 C608.342957,428.817627 575.324707,432.008789 558.809937,455.248444 C547.451843,471.231659 543.949219,489.359833 547.729431,508.504333 C551.637634,528.296936 571.076111,543.671814 592.074280,544.807739 C605.304199,545.523376 618.009399,543.731934 629.967041,537.872375 C633.110962,536.331787 635.008850,537.013000 636.205811,540.158997 C640.390137,551.157166 640.070984,550.340454 631.054443,553.639038 C610.166382,561.280579 588.981018,562.045288 568.134277,553.539978 C541.412537,542.637756 529.458984,517.623108 531.167847,489.881378 C532.199768,473.128906 537.698608,458.006500 548.506836,444.997162 C565.301514,424.782104 587.238647,417.785278 612.746155,420.271057 C629.020447,421.857056 642.828979,428.382538 653.516602,441.553436 M586.354309,476.886414 C582.781128,482.064178 580.821167,487.864716 580.375305,494.069397 C579.757446,502.667786 582.746216,508.785645 587.941040,510.429504 C593.349854,512.141052 599.533569,508.667542 604.003723,501.266663 C608.578979,493.691620 610.024475,485.193024 611.069275,476.592133 C611.690735,471.475128 609.639343,468.851501 604.425720,468.186005 C596.862488,467.220612 591.310547,470.664825 586.354309,476.886414 z"/>
</svg>
